<svg width="44" height="44" viewBox="0 0 44 44" fill="none" xmlns="http://www.w3.org/2000/svg">
<path d="M5.5 11H9.16667H38.5" stroke="#D4E2FC" stroke-width="3.66667" stroke-linecap="round" stroke-linejoin="round"/>
<path d="M34.8333 11V36.6667C34.8333 37.6391 34.447 38.5717 33.7594 39.2594C33.0718 39.947 32.1391 40.3333 31.1667 40.3333H12.8333C11.8609 40.3333 10.9282 39.947 10.2406 39.2594C9.55297 38.5717 9.16666 37.6391 9.16666 36.6667V11M14.6667 11V7.33332C14.6667 6.36086 15.053 5.42823 15.7406 4.7406C16.4282 4.05296 17.3609 3.66666 18.3333 3.66666H25.6667C26.6391 3.66666 27.5718 4.05296 28.2594 4.7406C28.947 5.42823 29.3333 6.36086 29.3333 7.33332V11" stroke="#D4E2FC" stroke-width="3.66667" stroke-linecap="round" stroke-linejoin="round"/>
<path d="M18.3333 20.1667V31.1667" stroke="#D4E2FC" stroke-width="3.66667" stroke-linecap="round" stroke-linejoin="round"/>
<path d="M25.6667 20.1667V31.1667" stroke="#D4E2FC" stroke-width="3.66667" stroke-linecap="round" stroke-linejoin="round"/>
</svg>
