<svg width="44" height="44" viewBox="0 0 44 44" fill="none" xmlns="http://www.w3.org/2000/svg">
<path d="M20.1667 7.33334H7.33333C6.36087 7.33334 5.42824 7.71965 4.74061 8.40729C4.05297 9.09492 3.66666 10.0275 3.66666 11V36.6667C3.66666 37.6391 4.05297 38.5718 4.74061 39.2594C5.42824 39.947 6.36087 40.3333 7.33333 40.3333H33C33.9725 40.3333 34.9051 39.947 35.5927 39.2594C36.2804 38.5718 36.6667 37.6391 36.6667 36.6667V23.8333" stroke="black" stroke-width="3.66667" stroke-linecap="round" stroke-linejoin="round"/>
<path d="M33.9167 4.58333C34.646 3.85399 35.6352 3.44424 36.6667 3.44424C37.6981 3.44424 38.6873 3.85399 39.4167 4.58333C40.146 5.31268 40.5558 6.30188 40.5558 7.33333C40.5558 8.36478 40.146 9.35399 39.4167 10.0833L22 27.5L14.6667 29.3333L16.5 22L33.9167 4.58333Z" stroke="black" stroke-width="3.66667" stroke-linecap="round" stroke-linejoin="round"/>
</svg>
