<svg width="44" height="44" viewBox="0 0 44 44" fill="none" xmlns="http://www.w3.org/2000/svg">
<path d="M12.8333 20.1667H16.5V23.8333H12.8333V20.1667ZM38.5 11V36.6667C38.5 38.6833 36.85 40.3333 34.8333 40.3333H9.16667C7.13167 40.3333 5.5 38.6833 5.5 36.6667L5.51833 11C5.51833 8.98332 7.13167 7.33332 9.16667 7.33332H11V3.66666H14.6667V7.33332H29.3333V3.66666H33V7.33332H34.8333C36.85 7.33332 38.5 8.98332 38.5 11ZM9.16667 14.6667H34.8333V11H9.16667V14.6667ZM34.8333 36.6667V18.3333H9.16667V36.6667H34.8333ZM27.5 23.8333H31.1667V20.1667H27.5V23.8333ZM20.1667 23.8333H23.8333V20.1667H20.1667V23.8333Z" fill="black"/>
<path d="M12.8333 20.1667H16.5V23.8333H12.8333V20.1667ZM38.5 11V36.6667C38.5 38.6833 36.85 40.3333 34.8333 40.3333H9.16667C7.13167 40.3333 5.5 38.6833 5.5 36.6667L5.51833 11C5.51833 8.98332 7.13167 7.33332 9.16667 7.33332H11V3.66666H14.6667V7.33332H29.3333V3.66666H33V7.33332H34.8333C36.85 7.33332 38.5 8.98332 38.5 11ZM9.16667 14.6667H34.8333V11H9.16667V14.6667ZM34.8333 36.6667V18.3333H9.16667V36.6667H34.8333ZM27.5 23.8333H31.1667V20.1667H27.5V23.8333ZM20.1667 23.8333H23.8333V20.1667H20.1667V23.8333Z" fill="black"/>
</svg>
