<svg width="44" height="44" viewBox="0 0 44 44" fill="none" xmlns="http://www.w3.org/2000/svg">
<path d="M20.1667 7.33331H7.33334C6.36088 7.33331 5.42825 7.71962 4.74061 8.40725C4.05298 9.09489 3.66667 10.0275 3.66667 11V36.6666C3.66667 37.6391 4.05298 38.5717 4.74061 39.2594C5.42825 39.947 6.36088 40.3333 7.33334 40.3333H33C33.9725 40.3333 34.9051 39.947 35.5927 39.2594C36.2804 38.5717 36.6667 37.6391 36.6667 36.6666V23.8333" stroke="#001C42" stroke-width="3.66667" stroke-linecap="round" stroke-linejoin="round"/>
<path d="M33.9167 4.58337C34.646 3.85403 35.6352 3.44427 36.6667 3.44427C37.6981 3.44427 38.6873 3.85403 39.4167 4.58337C40.146 5.31272 40.5558 6.30192 40.5558 7.33337C40.5558 8.36482 40.146 9.35402 39.4167 10.0834L22 27.5L14.6667 29.3334L16.5 22L33.9167 4.58337Z" stroke="#001C42" stroke-width="3.66667" stroke-linecap="round" stroke-linejoin="round"/>
</svg>
