<svg viewBox="-2.7162162162161962 0 400.64189189189193 538.1875" fill="none" xmlns="http://www.w3.org/2000/svg" xmlns:xlink="http://www.w3.org/1999/xlink" overflow="visible" width="400.64189189189193px" height="538.1875px"><g id="Master/Composition/Plants"><g id="Succulents 2" opacity="0.699219"><mask id="mask0_215_5490dd06401a-7a33-4b29-830e-a8e732dc9ff5" style="mask-type:alpha" maskUnits="userSpaceOnUse" x="262" y="250" width="140" height="266" fill="#ffffff"><rect id="Mask" x="262" y="250" width="140" height="266" fill="#d7e2fa"/></mask><g mask="url(#mask0_215_5490dd06401a-7a33-4b29-830e-a8e732dc9ff5)"><g id="Succulents 2_2"><g id="Succulents"><path id="Thi Succs!" fill-rule="evenodd" clip-rule="evenodd" d="M274.972 250.306C287.962 281.133 310.043 302.553 321.738 334.607C328.673 353.616 331.564 374.285 331.739 395.453C331.835 406.951 331.634 418.456 331.58 429.954C331.528 441.167 331.223 452.308 330.27 463.448C329.312 474.648 328.24 485.715 327.767 496.984C327.399 505.764 327.231 515.977 324.251 523.987C321.881 530.356 315.858 531.289 314.26 523.564C313.372 519.27 313.484 514.475 313.582 510.062C313.707 504.399 314.037 498.745 314.205 493.084C314.881 470.366 314.005 447.643 314.463 424.916C314.91 402.71 317.768 380.529 314.606 358.472C311.995 340.257 305.361 324.616 297.737 309.621C290.403 295.195 282.42 281.119 277.463 264.709C276.04 259.996 274.94 255.112 274.412 250.044C274.642 249.937 274.829 250.024 274.972 250.306Z" fill="#583848"/><path id="Thi Succs!_2" fill-rule="evenodd" clip-rule="evenodd" d="M271.432 311.125C274.004 312.98 275.441 315.694 277.18 318.371C279.342 321.7 281.884 324.705 284.045 328.036C288.552 334.981 292.512 342.353 296.62 349.579C304.42 363.296 310.342 377.915 313.275 393.783C316.316 410.228 317.135 427.202 318.411 443.893C319.763 461.583 321.126 479.401 321.305 497.159C321.385 505.115 321.815 513.561 320.859 521.461C320.264 526.379 318.041 530.571 313.031 530.531C302.39 530.447 297.393 518.674 295.306 509.019C292.234 494.803 291.62 479.702 292.107 465.163C292.695 447.632 295.741 430.365 297.059 412.902C298.456 394.415 297.667 376.254 291.303 358.847C288.088 350.051 284.357 341.465 281.006 332.727C279.579 329.007 278.411 325.185 276.484 321.721C274.34 317.867 271.679 314.369 270 310.219C270.477 310.521 270.955 310.823 271.432 311.125Z" fill="#b04c6f"/><path id="Thi Succs!_3" fill-rule="evenodd" clip-rule="evenodd" d="M394.021 274.367C394.347 274.078 394.674 273.789 395 273.5C394.06 278.007 392.362 281.669 391.065 285.789C389.898 289.493 389.307 293.685 388.521 297.734C386.677 307.244 384.545 316.539 382.802 326.129C379.353 345.107 380.005 365.552 382.267 386.607C384.404 406.497 387.783 426.355 389.393 446.24C390.728 462.731 391.301 479.736 390.028 495.47C389.163 506.156 386.327 518.914 378.6 517.836C374.962 517.328 373.065 512.344 372.3 506.718C371.072 497.681 370.815 488.18 370.336 479.194C369.268 459.137 369.055 439.141 368.844 419.29C368.645 400.561 368.095 381.461 369.194 363.204C370.255 345.586 373.571 329.712 378.313 315.064C380.811 307.347 383.191 299.45 385.997 292.095C387.343 288.567 388.987 285.45 390.333 281.925C391.416 279.09 392.277 276.18 394.021 274.367Z" fill="#b47ca2"/><path id="Thi Succs!_4" fill-rule="evenodd" clip-rule="evenodd" d="M274.719 362.068C276.126 359.709 279.223 367.49 279.695 368.469C279.496 367.982 279.295 367.496 279.093 367.01C281.887 371.649 284.442 376.478 286.031 381.797C287.603 387.062 288.953 392.434 290.428 397.737C293.196 407.686 296.767 417.353 299.275 427.392C301.718 437.175 302.334 446.792 301.743 456.91C301.128 467.427 300.752 478.105 301.469 488.616C301.812 493.636 303.445 498.312 304.564 503.145C305.685 507.983 306.568 512.885 307.893 517.663C308.197 517.041 308.236 519.122 308.235 519.28C308.227 520.473 308.06 521.474 307.675 522.606C306.687 525.516 304.839 527.989 302.026 528.792C296.943 530.242 292.224 525.624 290.585 520.748C288.233 513.751 286.937 506.019 285.817 498.665C284.789 491.922 284.546 485.138 284.851 478.302C285.453 464.82 287.895 451.515 288.556 438.038C289.275 423.365 286.365 409.579 283.928 395.296C282.754 388.414 281.632 381.597 279.347 375.04C278.422 372.385 277.217 370.042 275.952 367.59C275.233 366.195 273.778 363.707 274.719 362.068Z" fill="#583848"/><path id="Thi Succs!_5" fill-rule="evenodd" clip-rule="evenodd" d="M315.959 339.149C315.376 355.958 314.371 372.64 312.127 389.273C309.837 406.246 307.206 423.161 305.003 440.15C302.858 456.686 300.61 473.497 300.909 490.265C301.13 502.615 299.08 523.509 312.814 529.604C326.724 535.777 329.707 509.416 330.621 500.714C332.371 484.02 331.804 467.15 330.955 450.365C330.083 433.138 328.627 415.998 326.823 398.834C324.819 379.768 323.246 360.617 321.984 341.497C321.36 332.04 321.206 322.598 321.379 313.139C321.541 304.213 321.202 295.194 318.024 286.719C317.858 286.839 317.692 286.96 317.526 287.08" fill="#b47ca2"/><path id="Thi Succs!_6" fill-rule="evenodd" clip-rule="evenodd" d="M382.769 407.747C380.267 411.386 377.746 414.991 375.383 418.846C371.156 425.744 367.334 433.415 366.184 443.278C363.777 463.919 365.708 486.213 366.174 507.486C366.269 511.833 365.719 516.049 367.434 520.186C368.99 523.938 371.898 526.796 374.67 526.781C380.604 526.747 379.699 512.234 379.708 505.845C379.726 494.649 378.469 483.339 378.577 472.152C378.686 461.07 379.36 449.957 380.969 439.432C382.598 428.778 384.983 418.548 388.131 409.002C388.568 407.677 391.703 397.439 388.741 399.204" fill="#583848"/><path id="Thi Succs!_7" fill-rule="evenodd" clip-rule="evenodd" d="M361.562 282.312C357.661 282.312 357.685 301.738 357.567 304.233C357.143 313.238 357.243 322.244 356.975 331.25C356.388 350.904 355.667 370.731 352.711 390.157C351.12 400.616 349.275 411.027 347.29 421.406C345.3 431.815 342.628 442.211 341.319 452.751C340.061 462.884 340.772 473.217 340.944 483.399C341.117 493.644 341.427 503.909 342.77 514.063C343.102 516.57 343.491 519.067 343.907 521.559C344.253 523.635 344.051 526.209 344.638 528.182C345.578 531.342 349.607 532.377 352.321 531.883C359.663 530.544 364.352 521.337 366.86 514.609C370.063 506.02 371.763 496.702 373.44 487.65C375.34 477.394 376.454 466.981 376.976 456.54C378.038 435.32 376.675 414.077 375.153 392.924C374.306 381.16 373.329 369.448 371.832 357.757C370.342 346.116 368.43 334.527 367.185 322.852C366.281 314.367 365.39 305.871 364.804 297.354C364.664 295.324 364.546 282.312 361.562 282.312" fill="#b04c6f"/><path id="Thi Succs!_8" fill-rule="evenodd" clip-rule="evenodd" d="M356.677 423.516C356.041 403.121 347.833 313.537 345.965 288.874C345.498 282.7 341.002 256.998 340.419 250C338.837 251.978 338.972 282.767 338.99 289.842C339.008 296.84 338.139 303.722 337.692 310.682C337.237 317.784 326.724 409.508 325.359 416.332C322.645 429.908 320.829 443.84 319.428 457.722C318.063 471.252 315.941 485.526 317.767 499.127C318.187 502.258 318.852 505.339 319.933 508.215C321.102 511.323 321.903 514.197 322.841 517.449C324.35 522.687 327.08 527.285 331.276 529.447C339.878 533.881 344.497 523.844 346.839 515.105C350.578 501.149 352.979 486.965 354.104 472.308C355.349 456.092 357.187 439.844 356.677 423.516" fill="#583848"/></g></g></g></g><g id="Group" opacity="0.4"><path id="Leaf Me Alone!" fill-rule="evenodd" clip-rule="evenodd" d="M151.976 241.453C166.041 240.399 181.748 251.932 188.532 263.933C194.001 273.609 193.08 286.315 189.702 296.595C187.44 303.477 182.503 313.29 174.27 313.385C163.969 313.505 163.472 300.566 163.273 293.001C163.008 282.945 161.758 274.184 153.961 267.329C152.999 266.483 151.989 265.691 150.979 264.899C150.082 264.196 149.186 263.493 148.323 262.753C148.185 262.634 148.046 262.516 147.907 262.397C145.15 260.042 142.254 257.569 141.902 253.687C141.391 248.061 144.515 247.048 149.286 248.094C149.44 248.127 149.858 248.288 150.426 248.507C152.863 249.446 158.061 251.449 157.078 249.054C156.708 248.152 155.355 247.438 153.648 246.902C149.231 246.414 143.963 245.847 142.448 246.186C126.103 249.83 119.74 272.841 118.05 287.461C117.861 289.098 117.709 290.741 117.577 292.386H114.579C114.788 288.497 115.062 284.615 115.702 280.77C118.111 266.288 125.643 245.019 142.162 242.668C142.772 242.581 145.013 242.566 147.729 242.728C149.016 241.997 150.457 241.555 151.976 241.453Z" fill="#b04c6f"/><path id="Leaf Me Alone!_2" fill-rule="evenodd" clip-rule="evenodd" d="M74.5023 131.556C75.335 140.011 75.0771 148.441 76.3658 156.883C77.3964 163.63 79.5759 170.107 82.5484 176.252C85.4067 182.162 91.3359 187.193 92.878 193.506C93.8608 197.529 93.3106 203.188 91.9552 207.123C90.3068 211.907 91.1829 211.529 94.4674 215.543C100.904 223.41 106.699 231.478 110.797 240.873C116.7 254.407 120.571 270.226 118.38 285.04C118.101 286.921 117.771 293.672 115.17 294.144C115.17 294.144 115.645 274.649 114.453 266.567C109.854 235.384 87.3987 214.838 72.7771 188.371C71.9733 187.007 70.2764 183.757 69.0966 181.613C67.2339 178.227 65.3613 171.786 62.8397 169.276C61.001 167.445 60.5287 167.748 60.6941 168.913C60.9558 170.756 62.815 174.757 63.3821 175.869C64.5521 178.164 65.8392 180.604 67.0382 182.616C72.524 191.94 78.6473 202.118 84.313 211.729C59.8092 217.291 42.5521 187.944 35.9764 168.65C30.5586 152.753 24.0763 115.587 49.3217 114.227C60.067 113.672 73.3558 119.92 74.5023 131.556Z" fill="#b04c6f"/><path id="Leaf Me Alone!_3" fill-rule="evenodd" clip-rule="evenodd" d="M185.248 61.7898C172.223 65.8533 163.561 76.3331 159.11 90.0302C156.199 98.9878 155.865 108.19 154.247 117.395C151.813 131.245 146.577 141.74 136.344 151.607C133.174 154.663 130.839 157.801 129.178 161.157C125.882 164.509 123.013 168.301 120.905 172.938C118.212 178.86 117.45 185.965 120.559 191.869C121.395 193.456 123.48 196.642 125.642 198.089C117.55 215.26 113.101 234.066 113.603 252.848C113.906 264.186 114.461 386.856 115.109 398.18C115.284 401.22 116.277 406.241 117.77 401.142C119.136 396.478 117.423 277.829 117.264 272.956C116.493 249.219 115.834 227.636 125.64 205.458C126.669 203.134 127.759 200.828 128.894 198.541C128.961 198.502 129.023 198.456 129.086 198.411C129.129 198.444 129.168 198.48 129.212 198.512C129.284 198.384 129.383 198.23 129.499 198.059C129.825 197.724 130.109 197.301 130.38 196.828C131.25 195.627 132.234 194.216 132.239 193.444C132.239 193.438 132.236 193.428 132.236 193.422C138.307 183.548 145.26 174.218 152.362 165.07C152.309 165.137 160.066 154.613 158.867 160.433C158.289 163.237 152.583 168.578 150.278 171.549C145.181 178.159 139.194 186.533 134.22 194.631C133.551 195.014 132.605 196.896 131.921 198.298C131.543 199.008 131.191 199.724 130.845 200.348C148.471 206.151 162.182 194.462 171.532 180.867C171.543 180.851 171.553 180.834 171.564 180.818C174.409 177.062 177.323 173.332 180.964 170.362C187.039 165.407 193.545 164.533 200.707 162.094C220.239 155.444 228.544 130.221 231.181 111.505C234.157 90.3909 219.601 58.0137 194.189 60.0956C191.009 60.3471 188.029 60.9222 185.248 61.7898Z" fill="#583848"/><path id="Leaf Me Alone!_4" fill-rule="evenodd" clip-rule="evenodd" d="M158.218 2.12858C139.496 21.2785 130.451 47.8397 123.289 72.81C115.29 100.699 110.006 129.019 109.803 158.015C109.67 177.066 109.143 196.235 110.274 215.264C110.676 222.022 111.361 228.792 112.451 235.477C112.541 236.026 114.979 250.953 117.313 247.475C118.639 245.497 114.813 231.99 114.524 229.741C112.897 217.07 112.519 204.306 112.599 191.543C112.729 170.53 112.099 149.625 114.266 128.69C114.589 125.564 114.845 122.281 115.6 119.223C116.402 115.972 115.381 117.391 117.993 116.104C120.532 114.853 123.669 115.032 126.303 113.462C136.752 107.235 142.097 91.241 146.257 80.7466C151.015 68.7457 153.907 55.9485 156.216 43.3193C157.912 34.0402 159.125 24.8176 159.811 15.4192C160.027 12.4571 160.04 9.35954 160.633 6.44701C160.792 5.66137 161.593 4.27157 161.564 3.57581C161.502 2.10332 160.598 1.23731 160.524 0C159.74 0.69316 158.971 1.4032 158.218 2.12858" fill="#b47ca2"/></g><g id="Character"><g id="Head/Front" transform="translate(101.859 134.148) scale(1.1015625 1.1043955729557917)"><g id="Head/Front/Short Beard"><g id="Head"><path id="SKIN" fill-rule="evenodd" clip-rule="evenodd" d="M73.9354 75.2443C80.411 79.1475 86.7736 81.0333 89.7603 80.2635C97.2496 78.333 97.9382 50.9351 92.1433 40.1339C86.3485 29.3328 56.5583 24.625 55.0568 46.0255C54.5356 53.4529 57.6544 60.0814 62.2623 65.4901L54 104H78L73.9354 75.2443Z" fill="#b36588"/></g><path id="Hair" fill-rule="evenodd" clip-rule="evenodd" d="M71.7199 51.0426C71.4839 51.0144 71.2437 50.9999 71.0001 50.9999C67.6864 50.9999 65.0001 53.6862 65.0001 56.9999C65.0001 58.6821 65.6924 60.2026 66.8076 61.2921C65.4193 63.2517 63.8634 65.2988 62.0805 67.4111C55.3825 63.3926 49.4122 50.6289 55.9606 39.3282C57.7706 33.7921 62.8681 31.8351 67.7075 30.4621C71.6276 28.8223 75.697 28.6374 79.1322 29.6205C85.8661 30.198 91.8791 32.2514 93.5833 33.4708C93.5833 39.8461 92.348 41.7376 81.7969 41.5708C79.2043 42.94 77.2113 45.2978 75.1354 48.3888C75.1527 48.626 76.5501 67.5846 82.4259 67.5846C85.9827 67.5846 89.2152 66.2263 91.7912 65.1439C93.4976 64.4269 94.9159 63.8309 95.9497 63.8309C97.8409 63.8309 97.4187 66.1976 96.1651 67.9524C95.7677 68.5086 94.7795 69.0571 93.7132 69.6489C92.004 70.5976 90.094 71.6578 90.094 73.0399C90.094 74.3079 91.3641 74.3054 92.4692 74.3032C93.3203 74.3015 94.0735 74.3 94.0735 74.8791C94.0735 75.1563 94.0846 75.4642 94.0963 75.7907C94.1779 78.0577 94.2918 81.2209 90.9513 81.2209C87.0838 81.2209 75.9949 79.8115 74.0945 74.0714C72.4826 69.2025 71.8691 55.1856 71.7199 51.0426Z" fill="#a63559"/></g></g><g id="Lower Body/Sitting" transform="translate(11.5312 340.67) scale(1.1015625 1.1043956549097804)"><g id="Lower Body/Sitting/Sweat Pants"><g id="Seat"><ellipse id="Ballsy Ball" cx="126" cy="100.5" rx="77" ry="73.5" fill="#ada9d8"/></g><path id="SKIN" fill-rule="evenodd" clip-rule="evenodd" d="M245.711 96.5801C249.43 109.608 258.697 134.302 271.509 162.66L283.685 159.107C273.033 93.8526 264.168 50.6508 259.09 37.5018C255.735 28.8143 230.353 29.8322 233.273 47.3128C234.498 54.6433 239.343 74.2726 245.711 96.5801ZM195.667 50.3613C175.812 54.4749 134.644 69.0168 122.888 73.6636C115.5 76.5839 120.263 86.488 126.566 85.6215C127.633 85.4748 131.41 85.0523 137.044 84.422C155.142 82.3973 192.412 78.2278 220.679 74.1596C235.563 72.0174 227.556 44.138 212.102 47.0883C206.903 48.0808 201.373 49.1792 195.667 50.3613Z" fill="#b36588"/><path id="Leg Back" fill-rule="evenodd" clip-rule="evenodd" d="M259.869 30.1378C257.839 23.5136 165.562 0 165.562 0H158V7.04672L221.587 39.4163C221.503 40.4607 221.554 41.5648 221.759 42.729C221.3 66.7257 231.571 84.6527 241.739 102.402C248.389 114.008 254.994 125.539 258.528 138.641L281.889 135.156C281.209 133.416 280.133 125.568 278.661 114.839C274.952 87.7851 268.729 42.4086 260 30.4032C259.97 30.3613 259.939 30.3197 259.907 30.2783C259.896 30.2314 259.883 30.1846 259.869 30.1378Z" fill="#7f3950"/><path id="Leg Front" fill-rule="evenodd" clip-rule="evenodd" d="M163.283 58.6405C157.465 57.4758 152.107 56.4364 147.523 55.6323C117.909 50.4381 109.274 34.5863 114.38 0H168.942C177.855 2.56032 224.174 21.9848 248.207 32.3163C264.113 39.1543 259.099 63.8045 250.091 70.2195C250.042 70.613 249.88 70.8804 249.591 71C215.44 85.1543 186.318 84.0982 167.617 83.4201C159.784 83.136 153.78 82.9183 150 83.9122L144.077 65.2284L163.283 58.6405Z" fill="#b293bd"/><g id="Left [shoe]"><path id="shoe" fill-rule="evenodd" clip-rule="evenodd" d="M129.127 72.6947C129.081 71.5247 128.094 70.5893 126.93 70.7131C124.806 70.9388 121.672 71.3803 120.147 72.1242C117.716 73.3099 113.446 76.3949 113.446 76.3949C114.822 79.2152 138.171 127.088 138.171 127.088C138.171 127.088 145.668 125.878 144.112 121.367C142.557 116.855 141.603 113.835 141.603 113.835L140.615 85.1497C140.596 84.5867 140.115 84.1508 139.553 84.1861L135.14 84.4634C135.14 84.4634 131.379 81.4191 130.177 78.955C129.446 77.4549 129.204 74.6555 129.127 72.6947Z" fill="#b7d2fd"/></g><g id="Right [shoe]"><path id="shoe_2" fill-rule="evenodd" clip-rule="evenodd" d="M268.45 156.284C267.378 155.813 266.104 156.29 265.705 157.391C264.977 159.398 264 162.409 264 164.106C264 166.811 264.901 172 264.901 172C268.039 172 321.303 172 321.303 172C321.303 172 323.502 164.732 318.765 164.152C314.028 163.573 310.895 163.106 310.895 163.106L284.68 151.419C284.165 151.189 283.563 151.43 283.348 151.951L281.663 156.039C281.663 156.039 277.278 158.085 274.537 158.085C272.868 158.085 270.246 157.074 268.45 156.284Z" fill="#b7d2fd"/></g></g></g><g id="Upper Body" transform="translate(35.7656 224.709) scale(1.1015625 1.1043955757018717)"><g id="Upper Body/Hoodie"><path id="SKIN" fill-rule="evenodd" clip-rule="evenodd" d="M222.68 115.635L190.781 92.2115L183.73 109.642L215.318 122.741C224.251 133.235 229.246 137.61 230.304 135.865C231.195 134.394 230.499 133.017 229.857 131.749C229.357 130.76 228.89 129.838 229.233 128.989C230.018 127.049 236.019 127.254 241.705 127.691C247.392 128.128 245.735 125.598 244.364 124.349C238.559 120.874 231.331 117.97 222.68 115.635ZM55.398 156.908C58.3285 150.963 68.308 93.0199 68.308 93.0199L89.2054 93.1021C89.2054 93.1021 69.8506 155.583 68.308 159.406C66.3041 164.372 69.708 171.587 72.0162 176.48C72.3733 177.237 72.7041 177.938 72.9847 178.567C69.782 180 68.2435 178.268 66.6216 176.442C64.7896 174.379 62.8512 172.197 58.288 174.319C56.525 175.14 54.8568 176.109 53.2269 177.057C47.5969 180.329 42.4249 183.336 35.3891 178.994C34.2737 178.306 33.0514 175.715 36.0047 173.69C43.3624 168.645 53.9654 159.815 55.398 156.908Z" fill="#b36588"/><path id="Coat Back" fill-rule="evenodd" clip-rule="evenodd" d="M127.695 5.33203L136.342 3.84886C168.425 31.5643 181.603 84.8089 220.929 113.015L211.464 124.748C143.24 116.3 126.33 51.3548 127.695 5.33203Z" fill="#ada9d8"/><path id="Shirt" fill-rule="evenodd" clip-rule="evenodd" d="M90 114C90 114 142.008 114 166.511 114C170.008 114 169.349 108.952 168.843 106.404C163.011 77.0038 140.241 45.3115 140.241 3.46073L118.172 0C99.9175 29.3584 93.6048 65.5046 90 114Z" fill="#a4c0f5"/><path id="Coat Front" fill-rule="evenodd" clip-rule="evenodd" d="M81.3968 135C77.9582 143.259 74.5862 150.465 71.4089 156H54.9999C53.2345 98.9186 74.8454 54.9964 92.9315 28.5129C88.9158 28.2259 85.2911 26.5455 82.9999 22.4112C74.9335 7.85608 77.8467 -0.157593 86.4671 -2.79173C91.2074 -4.24021 95.6656 -3.25154 101.002 -2.06804C105.369 -1.09961 110.325 -0.000719281 116.504 2.76336e-08C116.506 2.76336e-08 116.508 2.76336e-08 116.51 2.76336e-08C117.109 2.76336e-08 117.654 0.0401216 118.148 0.116866L125.472 0.53474C125.472 0.53474 155.205 101.305 141.872 135H81.3968Z" fill="#d7e2fa"/><path id="Shade" fill-rule="evenodd" clip-rule="evenodd" d="M81.397 135C85.9087 124.164 90.5352 111.516 94.9874 98.4544C96.6448 112.839 99.4048 127.286 104 135H81.397Z" fill="#2e3440" fill-opacity="0.1"/></g></g></g><g id="Big Leaf Plant"><mask id="mask1_215_5490dd06401a-7a33-4b29-830e-a8e732dc9ff5" style="mask-type:alpha" maskUnits="userSpaceOnUse" x="0" y="354" width="127" height="170" fill="#ffffff"><rect id="Mask_2" y="354" width="127" height="170" fill="#d7e2fa"/></mask><g mask="url(#mask1_215_5490dd06401a-7a33-4b29-830e-a8e732dc9ff5)"><g id="Big Leaf Plant_2"><g id="Big Ass Leaf"><path id="leaf" fill-rule="evenodd" clip-rule="evenodd" d="M44.4793 354.091C47.1422 353.766 49.9842 353.88 52.4606 354.932C57.7264 357.169 59.2232 363.393 59.1509 368.452C59.0731 373.897 57.9174 379.844 62.055 384.232C63.957 386.249 66.3229 387.792 68.1905 389.846C70.1861 392.041 71.7519 394.553 72.9113 397.25C75.04 402.204 76.0849 408.029 74.1382 413.226C72.4243 417.801 68.1121 421.931 69.0439 427.134C70.0158 432.561 75.4847 436.71 78.9039 440.753C82.7735 445.327 86.3363 451.174 86.9216 457.174C87.4828 462.923 84.9814 468.738 81.1426 473.084C73.4727 481.769 61.9435 486.026 50.3186 486C45.383 485.988 39.7948 485.765 35.5355 483.112C34.2191 482.291 33.5246 481.371 32.7421 480.092C32.0404 478.945 31.1135 478.199 30.0407 477.387C27.6836 475.604 25.9815 473.201 24.8952 470.511C20.6768 460.064 24.0483 447.139 29.9531 437.862C31.3522 435.664 32.4977 433.549 31.818 430.929C31.1087 428.194 29.3654 425.728 27.8234 423.377C26.2998 421.054 24.5603 418.837 23.3694 416.325C22.1221 413.694 21.7709 410.938 21.9913 408.058C22.4054 402.648 24.7396 397.656 28.0441 393.305C31.2271 389.114 34.9643 385.105 34.9727 379.613C34.9819 373.794 31.0932 368.617 32.7499 362.7C33.4358 360.25 34.8136 357.736 37.034 356.267C39.1634 354.858 41.975 354.397 44.4793 354.091Z" fill="#583848"/><path id="middle thing" fill-rule="evenodd" clip-rule="evenodd" d="M42.7395 363.395C42.7894 362.613 43.7161 362.144 44.4456 362.348C45.4058 362.617 45.3873 363.515 45.362 364.314C45.2843 366.773 45.6399 369.162 46.2305 371.547C47.458 376.506 49.7267 381.075 51.524 385.839C53.3198 390.598 54.1627 395.513 53.1093 400.549C52.1162 405.298 50.556 409.923 49.5396 414.678C48.6438 418.869 47.6906 423.288 49.0548 427.468C50.3675 431.491 53.2698 434.768 55.3597 438.404C59.686 445.931 61.6053 454.281 61.8621 462.874C61.981 466.864 61.8739 470.891 60.9487 474.805C60.4162 477.058 59.7006 480.104 57.7705 481.659C56.8805 482.377 55.3584 482.625 54.6093 481.563C53.906 480.566 54.523 479.023 54.7463 477.961C55.7131 473.363 55.9076 468.665 55.6762 463.996C55.4521 459.474 54.9181 454.959 53.4956 450.641C52.1754 446.633 50.1697 443.033 47.8091 439.527C45.4036 435.954 42.903 432.373 41.909 428.14C40.8992 423.84 41.7196 419.465 42.8166 415.247C43.9767 410.786 45.4962 406.453 47.0672 402.112C48.5981 397.883 49.1407 393.882 48.2956 389.455C46.6261 380.71 42.1572 372.502 42.7395 363.395Z" fill="#2e3440" fill-opacity="0.2"/></g><g id="Big Ass Leaf_2"><path id="leaf_2" fill-rule="evenodd" clip-rule="evenodd" d="M114.775 364.476C118.081 365.48 121.365 367.101 123.721 369.641C128.733 375.044 127.195 383.209 124.429 389.173C121.451 395.591 116.938 402.044 119.482 409.408C120.651 412.794 122.617 415.861 123.727 419.273C124.912 422.918 125.423 426.715 125.358 430.52C125.237 437.508 123.379 444.965 118.334 450.113C113.891 454.646 106.628 457.294 104.967 463.952C103.234 470.898 107.47 478.676 109.351 485.257C111.48 492.704 112.574 501.501 110.083 508.923C107.696 516.037 101.67 521.629 94.8484 524.781C81.219 531.079 65.3944 530.11 51.7278 524.009C45.9255 521.418 39.4674 518.236 35.8615 512.864C34.7471 511.204 34.4176 509.749 34.1747 507.823C33.957 506.096 33.2618 504.727 32.4295 503.204C30.6006 499.858 29.8711 496.119 30.0184 492.361C30.5918 477.765 41.4102 464.192 53.2765 456.27C56.0881 454.393 58.5573 452.482 59.1461 449.019C59.7609 445.404 59.0168 441.568 58.4482 437.974C57.8866 434.422 57.0143 430.885 56.9444 427.283C56.8714 423.51 57.9187 420.057 59.7046 416.756C63.0595 410.554 68.4525 405.851 74.6476 402.415C80.6146 399.105 87.1382 396.3 90.0587 389.79C93.1543 382.891 91.3221 374.719 96.4079 368.564C98.5139 366.016 101.468 363.753 104.859 363.17C108.112 362.611 111.665 363.532 114.775 364.476Z" fill="#b04c6f"/><path id="middle thing_2" fill-rule="evenodd" clip-rule="evenodd" d="M108.021 375.885C108.49 374.983 109.823 374.913 110.572 375.539C111.558 376.364 111.065 377.42 110.615 378.357C109.232 381.236 108.395 384.261 107.835 387.406C106.671 393.942 106.933 400.563 106.54 407.168C106.147 413.766 104.555 420.048 100.674 425.476C97.0144 430.595 92.7545 435.269 89.065 440.382C85.8131 444.889 82.3737 449.637 81.779 455.32C81.206 460.79 82.8901 466.21 83.4323 471.628C84.555 482.845 82.4213 493.774 78.2094 504.117C76.2533 508.92 74.0126 513.647 70.8717 517.809C69.0634 520.206 66.6243 523.448 63.5429 524.28C62.1219 524.665 60.2057 524.159 59.8849 522.502C59.5832 520.949 61.1173 519.441 61.937 518.296C65.4862 513.343 68.1822 507.864 70.3626 502.196C72.4747 496.706 74.2193 491.063 74.8186 485.184C75.3747 479.728 74.9122 474.397 73.9841 468.99C73.0385 463.48 71.9851 457.912 73.0425 452.36C74.116 446.721 77.3764 441.955 80.8785 437.522C84.5826 432.832 88.6411 428.484 92.7637 424.155C96.781 419.936 99.5193 415.468 100.853 409.765C103.487 398.499 102.555 386.397 108.021 375.885Z" fill="#2e3440" fill-opacity="0.2"/></g><g id="Big Ass Leaf_3"><path id="leaf_3" fill-rule="evenodd" clip-rule="evenodd" d="M12.3555 406C17.8288 406 22.6407 408.903 25.9564 413.022C29.8378 417.845 30.6217 423.734 32.1978 429.481C32.982 432.341 34.3309 435.181 36.6947 437.124C38.8447 438.891 41.5741 439.245 44.1475 440.108C49.2906 441.834 53.4436 445.991 55.0837 451.063C57.0847 457.249 54.9653 463.489 55.3302 469.759C55.6652 475.517 61.3392 479.109 65.9043 481.869C70.4057 484.591 74.4609 487.139 75.8166 492.442C77.2543 498.066 77.7366 504.343 75.7454 509.898C72.43 519.149 62.7273 523.222 53.352 523.854C44.8437 524.427 34.1453 523.527 27.7556 517.347C23.9321 513.649 22.5474 508.477 22.7192 503.331C22.826 500.132 23.4594 496.962 24.2784 493.869C24.8589 491.678 25.6432 489.496 25.8666 487.231C26.4605 481.206 20.8953 480.049 16.1581 478.395C10.1384 476.292 5.92417 472.321 2.99371 466.789C0.264645 461.638 -0.88041 455.856 0.75558 450.184C1.59113 447.288 3.10663 444.661 5.16194 442.426C6.0667 441.443 7.34189 440.622 8.1585 439.589C8.92073 438.624 8.75479 437.374 8.49211 436.243C7.27751 431.022 3.49325 426.699 2.13991 421.487C0.918077 416.783 1.64036 410.928 5.93863 407.893C7.79564 406.582 10.0858 406.014 12.3555 406Z" fill="#b47ca2"/><path id="middle thing_3" fill-rule="evenodd" clip-rule="evenodd" d="M19.8136 419.604C25.6147 425.787 27.1915 434.176 27.6543 442.307C27.9135 446.867 27.6437 451.676 28.9825 456.098C30.1279 459.883 32.8133 462.777 35.5813 465.512C41.1532 471.017 47.3672 476.613 48.997 484.58C49.9532 489.256 49.3078 494.085 50.6291 498.709C51.8306 502.912 53.946 507.042 56.519 510.591C58.5906 513.449 61.2897 515.638 63.5543 518.302C64.2452 519.115 65.2349 520.312 64.9498 521.461C64.6161 522.805 62.9044 523.231 61.6899 523.02C58.8584 522.527 56.4749 519.822 54.6235 517.855C51.9163 514.979 49.6158 511.886 47.746 508.416C45.6702 504.562 43.9988 500.473 43.2847 496.15C42.5436 491.665 42.9124 486.991 41.2202 482.686C38.3726 475.444 31.4657 471.169 26.4719 465.524C20.2501 458.49 21.178 449.736 21.8153 441.083C22.1654 436.328 22.5134 430.958 20.1121 426.617C19.1955 424.96 17.1518 423.415 16.7577 421.531C16.3967 419.805 18.367 418.061 19.8136 419.604Z" fill="#2e3440" fill-opacity="0.2"/></g></g></g></g></g></svg>