<svg width="342" height="80" viewBox="0 0 342 80" fill="none" xmlns="http://www.w3.org/2000/svg">
<path d="M114.056 63V29.208H102.6V21.272H134.984V29.208H123.528V63H114.056ZM149.48 63.768C146.792 63.768 144.253 63.128 141.864 61.848C139.517 60.5253 137.618 58.6267 136.168 56.152C134.717 53.6347 133.992 50.6267 133.992 47.128C133.992 43.5867 134.717 40.5787 136.168 38.104C137.618 35.6293 139.517 33.752 141.864 32.472C144.253 31.1493 146.792 30.488 149.48 30.488C152.168 30.488 154.685 31.1493 157.032 32.472C159.378 33.752 161.277 35.6293 162.728 38.104C164.178 40.5787 164.904 43.5867 164.904 47.128C164.904 50.6267 164.178 53.6347 162.728 56.152C161.277 58.6267 159.378 60.5253 157.032 61.848C154.685 63.128 152.168 63.768 149.48 63.768ZM149.48 56.152C151.4 56.152 152.85 55.3413 153.832 53.72C154.813 52.056 155.304 49.8587 155.304 47.128C155.304 44.3547 154.813 42.1573 153.832 40.536C152.85 38.9147 151.4 38.104 149.48 38.104C147.517 38.104 146.045 38.9147 145.064 40.536C144.125 42.1573 143.656 44.3547 143.656 47.128C143.656 49.8587 144.125 52.056 145.064 53.72C146.045 55.3413 147.517 56.152 149.48 56.152ZM172.116 63V21.272H183.892C188.158 21.272 191.849 21.9973 194.964 23.448C198.078 24.8987 200.489 27.16 202.196 30.232C203.945 33.2613 204.819 37.1653 204.819 41.944C204.819 46.7227 203.966 50.6693 202.26 53.784C200.553 56.8987 198.164 59.224 195.092 60.76C192.062 62.2533 188.5 63 184.404 63H172.116ZM181.524 55.384H183.316C185.705 55.384 187.774 54.9573 189.524 54.104C191.316 53.2507 192.702 51.8427 193.684 49.88C194.665 47.9173 195.156 45.272 195.156 41.944C195.156 38.616 194.665 36.0133 193.684 34.136C192.702 32.216 191.316 30.872 189.524 30.104C187.774 29.2933 185.705 28.888 183.316 28.888H181.524V55.384ZM225.605 63.768C222.917 63.768 220.378 63.128 217.989 61.848C215.642 60.5253 213.743 58.6267 212.293 56.152C210.842 53.6347 210.117 50.6267 210.117 47.128C210.117 43.5867 210.842 40.5787 212.293 38.104C213.743 35.6293 215.642 33.752 217.989 32.472C220.378 31.1493 222.917 30.488 225.605 30.488C228.293 30.488 230.81 31.1493 233.157 32.472C235.503 33.752 237.402 35.6293 238.853 38.104C240.303 40.5787 241.029 43.5867 241.029 47.128C241.029 50.6267 240.303 53.6347 238.853 56.152C237.402 58.6267 235.503 60.5253 233.157 61.848C230.81 63.128 228.293 63.768 225.605 63.768ZM225.605 56.152C227.525 56.152 228.975 55.3413 229.957 53.72C230.938 52.056 231.429 49.8587 231.429 47.128C231.429 44.3547 230.938 42.1573 229.957 40.536C228.975 38.9147 227.525 38.104 225.605 38.104C223.642 38.104 222.17 38.9147 221.189 40.536C220.25 42.1573 219.781 44.3547 219.781 47.128C219.781 49.8587 220.25 52.056 221.189 53.72C222.17 55.3413 223.642 56.152 225.605 56.152Z" fill="#004691"/>
<path d="M248.625 63V21.144H256.049V56.728H273.457V63H248.625ZM280.11 63V31.576H287.47V63H280.11ZM283.822 26.072C282.499 26.072 281.432 25.688 280.622 24.92C279.811 24.152 279.406 23.128 279.406 21.848C279.406 20.6107 279.811 19.608 280.622 18.84C281.432 18.072 282.499 17.688 283.822 17.688C285.144 17.688 286.211 18.072 287.022 18.84C287.832 19.608 288.238 20.6107 288.238 21.848C288.238 23.128 287.832 24.152 287.022 24.92C286.211 25.688 285.144 26.072 283.822 26.072ZM305.628 63.768C303.494 63.768 301.361 63.3627 299.228 62.552C297.094 61.6987 295.26 60.6533 293.724 59.416L297.18 54.68C298.588 55.7467 299.996 56.6 301.404 57.24C302.812 57.88 304.305 58.2 305.884 58.2C307.59 58.2 308.849 57.8373 309.66 57.112C310.47 56.3867 310.876 55.4907 310.876 54.424C310.876 53.528 310.534 52.8027 309.852 52.248C309.212 51.6507 308.38 51.1387 307.356 50.712C306.332 50.2427 305.265 49.7947 304.156 49.368C302.79 48.856 301.425 48.2373 300.06 47.512C298.737 46.744 297.649 45.784 296.796 44.632C295.942 43.4373 295.516 41.9653 295.516 40.216C295.516 37.4427 296.54 35.1813 298.588 33.432C300.636 31.6827 303.409 30.808 306.908 30.808C309.126 30.808 311.11 31.192 312.86 31.96C314.609 32.728 316.124 33.6027 317.404 34.584L314.012 39.064C312.902 38.2533 311.772 37.6133 310.62 37.144C309.51 36.632 308.337 36.376 307.1 36.376C305.521 36.376 304.348 36.7173 303.58 37.4C302.812 38.04 302.428 38.8507 302.428 39.832C302.428 41.0693 303.068 42.008 304.348 42.648C305.628 43.288 307.121 43.9067 308.828 44.504C310.278 45.016 311.686 45.656 313.052 46.424C314.417 47.1493 315.548 48.1093 316.444 49.304C317.382 50.4987 317.852 52.0773 317.852 54.04C317.852 56.728 316.806 59.032 314.716 60.952C312.625 62.8293 309.596 63.768 305.628 63.768ZM334.244 63.768C330.617 63.768 328.036 62.7227 326.5 60.632C325.007 58.4987 324.26 55.7467 324.26 52.376V37.4H319.78V31.896L324.644 31.576L325.54 23H331.684V31.576H339.684V37.4H331.684V52.376C331.684 56.0453 333.156 57.88 336.1 57.88C336.655 57.88 337.231 57.816 337.828 57.688C338.425 57.5173 338.937 57.3467 339.364 57.176L340.644 62.616C339.791 62.9147 338.809 63.1707 337.7 63.384C336.633 63.64 335.481 63.768 334.244 63.768Z" fill="#001C42"/>
<path d="M31.6886 59.2222H2.1606C2.0719 59.2222 2 59.2941 2 59.3828C2 63.9579 5.70881 67.6667 10.2838 67.6667H69.7162C74.2912 67.6667 78 63.9579 78 59.3828C78 59.2941 77.9281 59.2222 77.8394 59.2222H48.3114C47.8427 61.0433 46.1896 62.3889 44.2222 62.3889H35.7778C33.8104 62.3889 32.1573 61.0433 31.6886 59.2222Z" stroke="#004691" stroke-width="2.5" stroke-linecap="round" stroke-linejoin="round"/>
<path d="M10.4444 59.2222V21.2222C10.4444 18.8904 12.3348 17 14.6667 17H65.3333C67.6652 17 69.5556 18.8904 69.5556 21.2222V59.2222" stroke="#004691" stroke-width="2.5" stroke-linecap="round" stroke-linejoin="round"/>
<path d="M27.3328 29.6667L35.6163 37.3366C36.0675 37.7544 36.0675 38.4679 35.6163 38.8856L27.3328 46.5556" stroke="#001C42" stroke-width="2.5" stroke-linecap="round" stroke-linejoin="round"/>
<path d="M40.5067 46.5556H52.6667" stroke="#001C42" stroke-width="2.5" stroke-linecap="round" stroke-linejoin="round"/>
</svg>
