<svg width="44" height="44" viewBox="0 0 44 44" fill="none" xmlns="http://www.w3.org/2000/svg">
<path d="M40.3333 22H29.3333L25.6667 27.5H18.3333L14.6667 22H3.66667" stroke="#D7E2FA" stroke-width="3.66667" stroke-linecap="round" stroke-linejoin="round"/>
<path d="M9.99167 9.36834L3.66667 22V33C3.66667 33.9725 4.05298 34.9051 4.74061 35.5927C5.42825 36.2804 6.36088 36.6667 7.33334 36.6667H36.6667C37.6391 36.6667 38.5718 36.2804 39.2594 35.5927C39.947 34.9051 40.3333 33.9725 40.3333 33V22L34.0083 9.36834C33.7048 8.75745 33.2368 8.24336 32.6571 7.88386C32.0774 7.52436 31.4088 7.33371 30.7267 7.33334H13.2733C12.5912 7.33371 11.9227 7.52436 11.3429 7.88386C10.7632 8.24336 10.2952 8.75745 9.99167 9.36834V9.36834Z" stroke="#D7E2FA" stroke-width="3.66667" stroke-linecap="round" stroke-linejoin="round"/>
</svg>
